<?xml version="1.0" encoding="utf-8"?>
<svg xmlns="http://www.w3.org/2000/svg" xmlns:xlink="http://www.w3.org/1999/xlink" style="margin: auto; background: rgb(255, 255, 255); display: block; shape-rendering: auto;" width="357px" height="357px" viewBox="0 0 100 100" preserveAspectRatio="xMidYMid">
<g transform="rotate(0 50 50)">
  <rect x="47" y="24" rx="3" ry="6" width="6" height="12" fill="#0073e6">
    <animate attributeName="opacity" values="1;0" keyTimes="0;1" dur="5s" begin="-4.583333333333333s" repeatCount="indefinite"></animate>
  </rect>
</g><g transform="rotate(30 50 50)">
  <rect x="47" y="24" rx="3" ry="6" width="6" height="12" fill="#0073e6">
    <animate attributeName="opacity" values="1;0" keyTimes="0;1" dur="5s" begin="-4.166666666666666s" repeatCount="indefinite"></animate>
  </rect>
</g><g transform="rotate(60 50 50)">
  <rect x="47" y="24" rx="3" ry="6" width="6" height="12" fill="#0073e6">
    <animate attributeName="opacity" values="1;0" keyTimes="0;1" dur="5s" begin="-3.7499999999999996s" repeatCount="indefinite"></animate>
  </rect>
</g><g transform="rotate(90 50 50)">
  <rect x="47" y="24" rx="3" ry="6" width="6" height="12" fill="#0073e6">
    <animate attributeName="opacity" values="1;0" keyTimes="0;1" dur="5s" begin="-3.333333333333333s" repeatCount="indefinite"></animate>
  </rect>
</g><g transform="rotate(120 50 50)">
  <rect x="47" y="24" rx="3" ry="6" width="6" height="12" fill="#0073e6">
    <animate attributeName="opacity" values="1;0" keyTimes="0;1" dur="5s" begin="-2.916666666666666s" repeatCount="indefinite"></animate>
  </rect>
</g><g transform="rotate(150 50 50)">
  <rect x="47" y="24" rx="3" ry="6" width="6" height="12" fill="#0073e6">
    <animate attributeName="opacity" values="1;0" keyTimes="0;1" dur="5s" begin="-2.4999999999999996s" repeatCount="indefinite"></animate>
  </rect>
</g><g transform="rotate(180 50 50)">
  <rect x="47" y="24" rx="3" ry="6" width="6" height="12" fill="#0073e6">
    <animate attributeName="opacity" values="1;0" keyTimes="0;1" dur="5s" begin="-2.083333333333333s" repeatCount="indefinite"></animate>
  </rect>
</g><g transform="rotate(210 50 50)">
  <rect x="47" y="24" rx="3" ry="6" width="6" height="12" fill="#0073e6">
    <animate attributeName="opacity" values="1;0" keyTimes="0;1" dur="5s" begin="-1.6666666666666665s" repeatCount="indefinite"></animate>
  </rect>
</g><g transform="rotate(240 50 50)">
  <rect x="47" y="24" rx="3" ry="6" width="6" height="12" fill="#0073e6">
    <animate attributeName="opacity" values="1;0" keyTimes="0;1" dur="5s" begin="-1.2499999999999998s" repeatCount="indefinite"></animate>
  </rect>
</g><g transform="rotate(270 50 50)">
  <rect x="47" y="24" rx="3" ry="6" width="6" height="12" fill="#0073e6">
    <animate attributeName="opacity" values="1;0" keyTimes="0;1" dur="5s" begin="-0.8333333333333333s" repeatCount="indefinite"></animate>
  </rect>
</g><g transform="rotate(300 50 50)">
  <rect x="47" y="24" rx="3" ry="6" width="6" height="12" fill="#0073e6">
    <animate attributeName="opacity" values="1;0" keyTimes="0;1" dur="5s" begin="-0.41666666666666663s" repeatCount="indefinite"></animate>
  </rect>
</g><g transform="rotate(330 50 50)">
  <rect x="47" y="24" rx="3" ry="6" width="6" height="12" fill="#0073e6">
    <animate attributeName="opacity" values="1;0" keyTimes="0;1" dur="5s" begin="0s" repeatCount="indefinite"></animate>
  </rect>
</g>
<!-- [ldio] generated by https://loading.io/ --></svg>